# xmcd
# 
# Track frame offsets:
#     150
#     17172
#     29290
#     47235
#     67095
#     88211
#     126115
# 
# Disc length: 2409
# 
# Revision: 0
# Processed by: cddbd v1.5.2PL0 Copyright (c) Steve Scherf et al.
# Submitted via: BonkEnc v1.0.6
# 
DISCID=5f096707
DTITLE=Children of Bodom - Hellhounds On My Trail
DYEAR=2008
DGENRE=Melodic Death Metal
TTITLE0=Hellhounds on my Trail [edit]
TTITLE1=Just Dropped In (To See Wht Condition My Condition Was In)
TTITLE2=Bed of Nails
TTITLE3=In Your Face (live)
TTITLE4=Hate Me! (live)
TTITLE5=Angels Don't Kill (live)
TTITLE6=Data track
EXTD=UK only EP
EXTT0=
EXTT1=
EXTT2=
EXTT3=
EXTT4=
EXTT5=
EXTT6=
PLAYORDER=
